<svg width="40" height="40" viewBox="0 0 40 40" fill="none" xmlns="http://www.w3.org/2000/svg">
<rect width="40" height="40" rx="12" fill="black"/>
<path d="M25.6308 20.3011C25.6416 19.4664 25.8633 18.6481 26.2753 17.9221C26.6873 17.1962 27.2763 16.5863 27.9873 16.1491C27.5356 15.5039 26.9397 14.973 26.2469 14.5984C25.554 14.2239 24.7834 14.016 23.9963 13.9914C22.317 13.8151 20.6891 14.9962 19.8333 14.9962C18.9611 14.9962 17.6436 14.0089 16.2249 14.0381C15.3072 14.0677 14.4128 14.3346 13.6289 14.8126C12.8451 15.2906 12.1984 15.9636 11.7519 16.7659C9.81789 20.1144 11.2605 25.0354 13.1132 27.742C14.0401 29.0674 15.1233 30.5478 16.5408 30.4953C17.9278 30.4378 18.4458 29.6108 20.1202 29.6108C21.779 29.6108 22.265 30.4953 23.7112 30.4619C25.1995 30.4378 26.1372 29.1307 27.0316 27.7928C27.6976 26.8484 28.2101 25.8047 28.55 24.7003C27.6853 24.3345 26.9474 23.7224 26.4283 22.9401C25.9092 22.1578 25.6318 21.2399 25.6308 20.3011ZM22.8993 12.2113C23.7108 11.2371 24.1106 9.98492 24.0138 8.7207C22.7739 8.85092 21.6287 9.44347 20.8062 10.3803C20.404 10.838 20.096 11.3704 19.8998 11.9472C19.7035 12.5239 19.6229 13.1337 19.6625 13.7417C20.2826 13.7481 20.8961 13.6137 21.4568 13.3486C22.0175 13.0835 22.5107 12.6946 22.8993 12.2113Z" fill="white"/>
</svg>
