<svg xmlns="http://www.w3.org/2000/svg" width="120" height="38" viewBox="0 0 120 38">
    <g transform="translate(17922.149 -8444)">
        <g transform="translate(-17922.148 8444)">
            <path d="M185.844,60.342,164.348,26l-21.5,34.342,21.5-11.71Z" transform="translate(-142.852 -26)"
                  fill="#fff"/>
            <path d="M205.841,260.824,188.1,251.473l-17.743,9.351,17.743-5.776Z"
                  transform="translate(-166.602 -222.824)" fill="#fff"/>
        </g>
        <path d="M20.823,416.687a5.943,5.943,0,0,1-3.67-1.151,7.313,7.313,0,0,1-2.352-3.286,14.039,14.039,0,0,1-.8-4.971,12.673,12.673,0,0,1,.9-5.038,7.156,7.156,0,0,1,2.519-3.2,6.413,6.413,0,0,1,3.737-1.118,5.444,5.444,0,0,1,2.352.467,4.367,4.367,0,0,1,1.618,1.251,4.158,4.158,0,0,1,.817,1.718l.6,1.7-.817,1.184a2.6,2.6,0,0,0-.567-1.084,2.466,2.466,0,0,0-1-.717,3.722,3.722,0,0,0-1.435-.25,3.052,3.052,0,0,0-2.619,1.285,8.658,8.658,0,0,0-.033,7.691,3,3,0,0,0,2.6,1.268,4.325,4.325,0,0,0,1.468-.233,3.691,3.691,0,0,0,1.084-.6,1.462,1.462,0,0,0,.5-.717l.2.217-.2,1.1a8.9,8.9,0,0,1-.634,1.835,5.459,5.459,0,0,1-.984,1.418,4.2,4.2,0,0,1-1.4.918A5.106,5.106,0,0,1,20.823,416.687Zm4.921-.217-.017-25.958H30.9V416.47Z"
              transform="translate(-17890.881 8057.379)" fill="#fff"/>
        <path d="M170.015,463.487a9.471,9.471,0,0,1-4.721-1.1,7.269,7.269,0,0,1-2.986-3.186,11.392,11.392,0,0,1-1.034-5.071,11.045,11.045,0,0,1,1.1-5.172,7.445,7.445,0,0,1,3.1-3.2,9.694,9.694,0,0,1,4.688-1.084,8.883,8.883,0,0,1,4.371.984,6.343,6.343,0,0,1,2.7,2.9,10.893,10.893,0,0,1,.918,4.721q0,.35-.033.817-.017.451-.05,1.034H166.361a5.7,5.7,0,0,0,1.1,3.32,3.255,3.255,0,0,0,2.569,1.034,3.1,3.1,0,0,0,2.069-.6,2.412,2.412,0,0,0,.851-1.585h4.971a6.26,6.26,0,0,1-3.854,5.438A10.065,10.065,0,0,1,170.015,463.487Zm-1.535-11.277h4.688a4.041,4.041,0,0,0-.851-2.619,3.56,3.56,0,0,0-5.121.484,7.067,7.067,0,0,0-.884,3.8,1.781,1.781,0,0,1,.651-1.3A2.614,2.614,0,0,1,168.48,452.209Z"
              transform="translate(-18019.168 8009.49)" fill="#fff"/>
        <path d="M301.05,411.4V398.942a1.988,1.988,0,0,1,.284-1.2,1.514,1.514,0,0,1,.834-.5l-1.118-3.3v-2.9a6.805,6.805,0,0,1,.851-3.553,5.375,5.375,0,0,1,2.285-2.119,6.951,6.951,0,0,1,3.153-.717,17.557,17.557,0,0,1,1.785.067,11.053,11.053,0,0,1,1.218.167v4.454a4.232,4.232,0,0,0-.934-.2,8.644,8.644,0,0,0-1.251-.083,2.211,2.211,0,0,0-1,.217,1.428,1.428,0,0,0-.684.751,3.909,3.909,0,0,0-.234,1.518V411.4Zm-2.235-14.163v-4.054h10.81v4.054ZM312.661,411.4V385.346h5.2V411.4Z"
              transform="translate(-18139.074 8062.445)" fill="#fff"/>
        <path d="M458.87,472.749v-4.4h1.985a6.432,6.432,0,0,0,1.835-.2,1.821,1.821,0,0,0,.934-.55,2.6,2.6,0,0,0,.5-.834,3.576,3.576,0,0,1,.417-.834,1.013,1.013,0,0,1,.517-.367h-2.019l-6.056-18.2h5.605l2.419,9.726.834,3.537h.15l.767-3.52,2.319-9.742h5.572l-5.772,18.2a21.105,21.105,0,0,1-1.2,3,8.859,8.859,0,0,1-1.585,2.269,6.01,6.01,0,0,1-2.2,1.418,8.349,8.349,0,0,1-3.036.5Z"
              transform="translate(-18276.801 8006.17)" fill="#fff"/>
    </g>
</svg>
