<svg xmlns="http://www.w3.org/2000/svg" xmlns:xlink="http://www.w3.org/1999/xlink" width="120" height="38"
     viewBox="0 0 120 38">
    <defs>
        <clipPath id="a">
            <rect width="120" height="38" fill="#fff"/>
        </clipPath>
    </defs>
    <g transform="translate(18090 -8428)">
        <g transform="translate(-18090 8428)" clip-path="url(#a)">
            <rect width="36" height="36" rx="7.768" transform="translate(0 1)" fill="#222222"/>
            <path d="M112.25,37h-11.5A5.976,5.976,0,0,1,95,30.818V9.182A5.976,5.976,0,0,1,100.75,3h11.5A5.976,5.976,0,0,1,118,9.182V30.818A5.976,5.976,0,0,1,112.25,37Z"
                  transform="translate(0 -1)" fill="rgba(107,70,254,0.1)"/>
            <path d="M112.25,38.5h-11.5a7.484,7.484,0,0,1-7.25-7.682V9.182A7.484,7.484,0,0,1,100.75,1.5h11.5a7.484,7.484,0,0,1,7.25,7.682V30.818A7.484,7.484,0,0,1,112.25,38.5Zm-11.5-34A4.487,4.487,0,0,0,96.5,9.182V30.818a4.487,4.487,0,0,0,4.25,4.682h11.5a4.487,4.487,0,0,0,4.25-4.682V9.182A4.487,4.487,0,0,0,112.25,4.5Z"
                  transform="translate(0 -1)" fill="#fff"/>
            <path d="M78.927,16.594H52v-3H71.683l-2.534-2.534L71.27,8.939Z" fill="#fff"/>
            <path d="M59.73,30.655,52.073,23H79v3H59.317l2.534,2.534Z" fill="#fff"/>
            <path d="M109.565,30.175h-5.826a1.5,1.5,0,1,1,0-3h5.826a1.5,1.5,0,0,1,0,3Z" fill="#fff"/>
        </g>
        <g transform="translate(-18227.544 8408.866)">
            <path d="M168.632,47.566,155.742,26l-12.89,21.566,12.89-7.354Z" transform="translate(0)" fill="#fff"/>
            <path d="M191.634,257.081l-10.639-5.607-10.639,5.607,10.639-3.464Z" transform="translate(-25.252 -207.321)"
                  fill="#fff"/>
        </g>
    </g>
</svg>
