<svg width="20" height="21" viewBox="0 0 20 21" fill="none" xmlns="http://www.w3.org/2000/svg">
<path d="M2.5 10.1373C2.5 10.8373 3.025 11.6456 3.66667 11.929L9.325 14.4456C9.75833 14.6373 10.25 14.6373 10.675 14.4456L16.3333 11.929C16.975 11.6456 17.5 10.8373 17.5 10.1373M2.5 14.304C2.5 15.079 2.95833 15.779 3.66667 16.0956L9.325 18.6123C9.75833 18.804 10.25 18.804 10.675 18.6123L16.3333 16.0956C17.0417 15.779 17.5 15.079 17.5 14.304M10.8417 3.40381L15.7583 5.58714C17.175 6.21214 17.175 7.24547 15.7583 7.87047L10.8417 10.0538C10.2833 10.3038 9.36668 10.3038 8.80835 10.0538L3.89168 7.87047C2.47502 7.24547 2.47502 6.21214 3.89168 5.58714L8.80835 3.40381C9.36668 3.15381 10.2833 3.15381 10.8417 3.40381Z" stroke="#131313" stroke-width="1.5" stroke-linecap="round" stroke-linejoin="round"/>
</svg>
