<svg width="24" height="24" viewBox="0 0 24 24" fill="none" xmlns="http://www.w3.org/2000/svg">
<path fill-rule="evenodd" clip-rule="evenodd" d="M10.7071 6.29387C11.0976 6.68439 11.0976 7.31756 10.7071 7.70808L7.41421 11.001L19 11.001C19.5523 11.001 20 11.4487 20 12.001C20 12.5533 19.5523 13.001 19 13.001L7.41421 13.001L10.7071 16.2939C11.0976 16.6844 11.0976 17.3176 10.7071 17.7081C10.3166 18.0986 9.68342 18.0986 9.29289 17.7081L4.29289 12.7081C4.10536 12.5205 4 12.2662 4 12.001C4 11.7358 4.10536 11.4814 4.29289 11.2939L9.29289 6.29387C9.68342 5.90335 10.3166 5.90335 10.7071 6.29387Z" fill="#3C3C49"/>
</svg>
