<svg width="20" height="21" viewBox="0 0 20 21" fill="none" xmlns="http://www.w3.org/2000/svg">
<path d="M12.55 17.129C15.15 17.379 16.5334 16.1623 17.2334 13.154L18.05 9.67063C18.8667 6.18729 17.8 4.4623 14.3084 3.64563L12.9167 3.32063C10.1334 2.6623 8.47503 3.20396 7.50003 5.22063M12.55 17.129C12.1334 17.0956 11.6834 17.0206 11.2 16.904L9.80003 16.5706C6.32503 15.7456 5.25003 14.029 6.0667 10.5456L6.88337 7.05396C7.05003 6.34563 7.25003 5.72896 7.50003 5.22063M12.55 17.129C12.0334 17.479 11.3834 17.7706 10.5917 18.029L9.27504 18.4623C5.96671 19.529 4.22504 18.6373 3.15004 15.329L2.08337 12.0373C1.01671 8.72897 1.90004 6.97897 5.20837 5.91231L6.52504 5.47897C6.86671 5.37064 7.1917 5.27896 7.50003 5.22063M10.5334 8.07897L14.575 9.10397M9.71671 11.304L12.1334 11.9206" stroke="#131313" stroke-width="1.5" stroke-linecap="round" stroke-linejoin="round"/>
</svg>
