<svg width="40" height="40" viewBox="0 0 40 40" fill="none" xmlns="http://www.w3.org/2000/svg">
<rect width="40" height="40" rx="12" fill="black"/>
<path d="M12.41 9.7719C12.1334 10.0219 11.9683 10.4388 11.9683 10.9922V10.8671V29.1294V29.0091C11.9683 29.5202 12.1099 29.9149 12.3497 30.169L12.4109 30.2277V30.228C12.6051 30.4035 12.854 30.4966 13.1393 30.4963C13.418 30.4963 13.7316 30.4073 14.0626 30.2194L26.0264 23.4107L30.1359 21.0717C30.6578 20.7748 30.9508 20.3917 30.9998 20.0014V19.9998C30.9508 19.6087 30.6578 19.2259 30.1359 18.9289L26.0261 16.5902L14.0627 9.78154C13.731 9.59325 13.4171 9.50391 13.1376 9.50391C12.8527 9.50391 12.6041 9.59677 12.41 9.7719H12.41Z" fill="#00C1FF"/>
<path d="M12.411 30.2285L12.3497 30.1698C12.1099 29.9157 11.9683 29.5209 11.9683 29.0098V29.1301V10.8724V10.993C11.9683 10.4396 12.1334 10.0226 12.41 9.77268L22.622 20.0009L12.411 30.2285Z" fill="url(#paint0_linear_173_14441)"/>
<path d="M26.0256 23.4102L22.6211 19.9996L26.0253 16.5896L30.1351 18.9283C30.657 19.2253 30.95 19.6081 30.9989 19.9993V20.0008C30.95 20.3911 30.657 20.7742 30.1351 21.0712L26.0256 23.4101" fill="url(#paint1_linear_173_14441)"/>
<path d="M13.1374 30.4961C12.8522 30.4964 12.6033 30.4032 12.4092 30.2277V30.2275L22.6202 19.9999L26.0246 23.4104L14.0608 30.2191C13.7298 30.4071 13.4162 30.4961 13.1374 30.4961Z" fill="url(#paint2_linear_173_14441)"/>
<path d="M22.6212 20.002L12.4092 9.7737C12.6033 9.59858 12.8519 9.50571 13.1368 9.50571C13.4163 9.50571 13.7302 9.59501 14.0618 9.78335L26.0253 16.592L22.6212 20.002" fill="url(#paint3_linear_173_14441)"/>
<path d="M13.1394 30.6172C12.8542 30.6172 12.6049 30.524 12.4108 30.3486L12.4105 30.3489C12.4097 30.3481 12.4088 30.3473 12.4079 30.3466L12.3548 30.2947C12.3531 30.2931 12.3516 30.2912 12.3496 30.2893L12.4108 30.2279C12.6049 30.4034 12.8538 30.4966 13.1392 30.4962C13.4179 30.4962 13.7315 30.4073 14.0625 30.2193L26.0263 23.4106L26.1029 23.4874L26.0253 23.5316L14.0625 30.3398C13.7608 30.5111 13.4739 30.6004 13.2147 30.6153C13.1896 30.6165 13.1645 30.6171 13.1394 30.6172" fill="url(#paint4_linear_173_14441)"/>
<path d="M12.3497 30.2891C12.1099 30.0349 11.9683 29.6406 11.9683 29.1292V29.0089C11.9683 29.52 12.1099 29.9146 12.3497 30.1688L12.4109 30.2275L12.3497 30.2891Z" fill="url(#paint5_linear_173_14441)"/>
<path d="M26.1025 23.4882L26.0259 23.4114L30.1349 21.0727C30.6568 20.7758 30.9498 20.3927 30.9987 20.0025C30.9987 20.1457 30.9668 20.2889 30.9035 20.4282C30.7756 20.7091 30.5194 20.9744 30.135 21.1934L26.1025 23.4883" fill="url(#paint6_linear_173_14441)"/>
<path d="M30.9991 20C30.9501 19.6089 30.6571 19.2261 30.1353 18.9291L26.0259 16.5907L26.1025 16.5139H26.1029L30.1353 18.8088C30.7106 19.1365 30.9987 19.5682 30.9991 20Z" fill="url(#paint7_linear_173_14441)"/>
<path d="M11.9683 10.9922V10.8661C11.9683 10.8206 11.9695 10.7761 11.9718 10.7329V10.7309C11.9718 10.7303 11.9718 10.7297 11.972 10.729V10.7242C11.9969 10.284 12.1334 9.94066 12.3497 9.71139L12.4099 9.77198C12.1334 10.0219 11.9683 10.4388 11.9683 10.9922Z" fill="url(#paint8_linear_173_14441)"/>
<path d="M26.026 16.5898L14.0625 9.78115C13.7308 9.59285 13.417 9.50355 13.1375 9.50355C12.8525 9.50355 12.6039 9.59642 12.4099 9.77154L12.3496 9.71091C12.3684 9.69096 12.388 9.67172 12.4082 9.65322C12.4089 9.65255 12.4099 9.65188 12.4105 9.65125C12.6031 9.47747 12.849 9.3846 13.1314 9.38293H13.1375C13.417 9.38293 13.7308 9.47227 14.0625 9.66064L26.1029 16.5128L26.1026 16.513L26.026 16.5898Z" fill="url(#paint9_linear_173_14441)"/>
<defs>
<linearGradient id="paint0_linear_173_14441" x1="18.4943" y1="10.6794" x2="9.69389" y2="19.494" gradientUnits="userSpaceOnUse">
<stop stop-color="#00A0FF"/>
<stop offset="0.00657" stop-color="#00A1FF"/>
<stop offset="0.2601" stop-color="#00BEFF"/>
<stop offset="0.5122" stop-color="#00D2FF"/>
<stop offset="0.7604" stop-color="#00DFFF"/>
<stop offset="1" stop-color="#00E3FF"/>
</linearGradient>
<linearGradient id="paint1_linear_173_14441" x1="31.6348" y1="19.9407" x2="11.691" y2="19.9407" gradientUnits="userSpaceOnUse">
<stop stop-color="#FFE000"/>
<stop offset="0.4087" stop-color="#FFBD00"/>
<stop offset="0.7754" stop-color="#FFA500"/>
<stop offset="1" stop-color="#FF9C00"/>
</linearGradient>
<linearGradient id="paint2_linear_173_14441" x1="24.2172" y1="23.2425" x2="9.30414" y2="38.0705" gradientUnits="userSpaceOnUse">
<stop stop-color="#FF3A44"/>
<stop offset="1" stop-color="#C31162"/>
</linearGradient>
<linearGradient id="paint3_linear_173_14441" x1="9.77725" y1="8.25731" x2="16.4237" y2="14.876" gradientUnits="userSpaceOnUse">
<stop stop-color="#32A071"/>
<stop offset="0.0685" stop-color="#2DA771"/>
<stop offset="0.4762" stop-color="#15CF74"/>
<stop offset="0.8009" stop-color="#06E775"/>
<stop offset="1" stop-color="#00F076"/>
</linearGradient>
<linearGradient id="paint4_linear_173_14441" x1="24.2114" y1="25.6084" x2="12.2683" y2="37.5709" gradientUnits="userSpaceOnUse">
<stop stop-color="#CC2E36"/>
<stop offset="1" stop-color="#9C0E4E"/>
</linearGradient>
<linearGradient id="paint5_linear_173_14441" x1="13.3285" y1="10.6804" x2="5.57625" y2="18.4453" gradientUnits="userSpaceOnUse">
<stop stop-color="#008DE0"/>
<stop offset="0.00657" stop-color="#008DE0"/>
<stop offset="0.2601" stop-color="#00A7E0"/>
<stop offset="0.5122" stop-color="#00B8E0"/>
<stop offset="0.7604" stop-color="#00C4E0"/>
<stop offset="1" stop-color="#00C7E0"/>
</linearGradient>
<linearGradient id="paint6_linear_173_14441" x1="31.6346" y1="20.0018" x2="11.6929" y2="20.0018" gradientUnits="userSpaceOnUse">
<stop stop-color="#E0C500"/>
<stop offset="0.4087" stop-color="#E0A600"/>
<stop offset="0.7754" stop-color="#E09100"/>
<stop offset="1" stop-color="#E08900"/>
</linearGradient>
<linearGradient id="paint7_linear_173_14441" x1="31.6349" y1="20.0008" x2="11.6933" y2="20.0008" gradientUnits="userSpaceOnUse">
<stop stop-color="#FFE840"/>
<stop offset="0.4087" stop-color="#FFCE40"/>
<stop offset="0.7754" stop-color="#FFBC40"/>
<stop offset="1" stop-color="#FFB540"/>
</linearGradient>
<linearGradient id="paint8_linear_173_14441" x1="13.3201" y1="10.6927" x2="5.8533" y2="17.8475" gradientUnits="userSpaceOnUse">
<stop stop-color="#40B8FF"/>
<stop offset="0.00657" stop-color="#40B9FF"/>
<stop offset="0.2601" stop-color="#40CEFF"/>
<stop offset="0.5122" stop-color="#40DDFF"/>
<stop offset="0.7604" stop-color="#40E7FF"/>
<stop offset="1" stop-color="#40EAFF"/>
</linearGradient>
<linearGradient id="paint9_linear_173_14441" x1="9.76302" y1="10.4182" x2="15.0961" y2="15.76" gradientUnits="userSpaceOnUse">
<stop stop-color="#65B895"/>
<stop offset="0.0685" stop-color="#62BD95"/>
<stop offset="0.4762" stop-color="#50DB97"/>
<stop offset="0.8009" stop-color="#44ED98"/>
<stop offset="1" stop-color="#40F498"/>
</linearGradient>
</defs>
</svg>
