<svg width="16" height="16" viewBox="0 0 16 16" fill="none" xmlns="http://www.w3.org/2000/svg">
<path fill-rule="evenodd" clip-rule="evenodd" d="M11.3287 10.0983C10.9574 10.0983 10.6564 9.79734 10.6564 9.42604L10.6564 6.29525L5.14866 11.803C4.88611 12.0655 4.46044 12.0655 4.19789 11.803C3.93534 11.5404 3.93534 11.1147 4.19789 10.8522L9.70561 5.34447L6.57482 5.34447C6.20352 5.34447 5.90252 5.04347 5.90252 4.67218C5.90252 4.30088 6.20352 3.99988 6.57482 3.99988L11.3287 3.99988C11.507 3.99988 11.678 4.07071 11.8041 4.19679C11.9301 4.32287 12.001 4.49387 12.001 4.67218L12.001 9.42604C12.001 9.79734 11.7 10.0983 11.3287 10.0983Z" fill="#9D9DAE"/>
</svg>